<svg fill="none" viewBox="0 0 100 100">
  <g clip-path="url(#a)">
    <path fill="#6563FF" d="M50 100c27.6142 0 50-22.3858 50-50S77.6142 0 50 0 0 22.3858 0 50s22.3858 50 50 50Z"/>
    <path fill="#fff" d="M72.7344 32.9492s-6.5039-5.0976-14.1992-5.6836l-.6836 1.3867c6.9531 1.6993 10.1367 4.1407 13.4765 7.1289-5.7422-2.9296-11.4258-5.6835-21.3086-5.6835-9.8828 0-15.5664 2.7539-21.3086 5.6835 3.3399-2.9882 7.1289-5.7031 13.4766-7.1289l-.6836-1.3867c-8.0664.7617-14.1992 5.6836-14.1992 5.6836s-7.2656 10.5469-8.5156 31.25c7.3242 8.4571 18.457 8.5156 18.457 8.5156l2.3242-3.1054c-3.9453-1.3672-8.418-3.8281-12.2656-8.2617 4.5898 3.4765 11.543 7.1093 22.7344 7.1093 11.1914 0 18.125-3.6132 22.7343-7.1093-3.8476 4.4336-8.3203 6.8945-12.2656 8.2617l2.3242 3.1054s11.1328-.0585 18.4571-8.5156c-1.2891-20.7031-8.5547-31.25-8.5547-31.25ZM40.7617 58.5156c-2.7539 0-4.9805-2.539-4.9805-5.6836 0-3.1445 2.2266-5.6836 4.9805-5.6836 2.7539 0 4.9805 2.5391 4.9805 5.6836 0 3.1446-2.2266 5.6836-4.9805 5.6836Zm18.4766 0c-2.7539 0-4.9805-2.539-4.9805-5.6836 0-3.1445 2.2266-5.6836 4.9805-5.6836 2.7539 0 4.9805 2.5391 4.9805 5.6836 0 3.1446-2.2461 5.6836-4.9805 5.6836Z"/>
  </g>
  <defs>
    <clipPath id="a">
      <path fill="#fff" d="M0 0h100v100H0z"/>
    </clipPath>
  </defs>
</svg>
