<svg fill="none" viewBox="0 0 100 100">
  <g clip-path="url(#a)">
    <path fill="url(#b)" d="M50 100C22.39 100 0 77.61 0 50S22.39 0 50 0s50 22.39 50 50-22.39 50-50 50Z"/>
    <path fill="#fff" d="M50.0001 22.02c9.11 0 10.19.03 13.79.2 3.33.15 5.14.71 6.34 1.18 1.59.62 2.73 1.36 3.92 2.55 1.19 1.19 1.93 2.33 2.55 3.92.47 1.2 1.02 3.01 1.18 6.34.16 3.6.2 4.68.2 13.79s-.03 10.19-.2 13.79c-.15 3.33-.71 5.14-1.18 6.34-.62 1.59-1.36 2.73-2.55 3.92-1.19 1.19-2.33 1.93-3.92 2.55-1.2.47-3.01 1.02-6.34 1.18-3.6.16-4.68.2-13.79.2s-10.19-.03-13.79-.2c-3.33-.15-5.14-.71-6.34-1.18-1.59-.62-2.73-1.36-3.92-2.55-1.19-1.19-1.93-2.33-2.55-3.92-.47-1.2-1.02-3.01-1.18-6.34-.16-3.6-.2-4.68-.2-13.79s.03-10.19.2-13.79c.15-3.33.71-5.14 1.18-6.34.62-1.59 1.36-2.73 2.55-3.92 1.19-1.19 2.33-1.93 3.92-2.55 1.2-.47 3.01-1.02 6.34-1.18 3.6-.17 4.68-.2 13.79-.2Zm0-6.15c-9.27 0-10.43.04-14.07.21-3.63.17-6.11.74-8.29 1.59-2.24.86-4.15 2.03-6.04 3.93-1.9 1.9-3.06 3.8-3.94 6.05-.84 2.17-1.42 4.65-1.59 8.29-.17 3.64-.21 4.8-.21 14.07s.04 10.43.21 14.07c.17 3.63.74 6.11 1.59 8.29.87 2.23 2.04 4.14 3.94 6.03 1.9 1.9 3.8 3.06 6.05 3.94 2.17.84 4.65 1.42 8.29 1.59 3.64.17 4.8.21 14.07.21s10.43-.04 14.07-.21c3.63-.17 6.11-.74 8.29-1.59 2.23-.87 4.14-2.04 6.03-3.94 1.9-1.9 3.06-3.8 3.94-6.05.84-2.17 1.42-4.65 1.59-8.29.17-3.64.21-4.8.21-14.07s-.04-10.43-.21-14.07c-.17-3.63-.74-6.11-1.59-8.29-.87-2.23-2.04-4.14-3.94-6.03-1.9-1.9-3.8-3.06-6.05-3.94-2.17-.84-4.65-1.42-8.29-1.59-3.63-.16-4.79-.2-14.06-.2Z"/>
    <path fill="#fff" d="M50.0002 32.47c-9.68 0-17.53 7.85-17.53 17.53 0 9.68 7.85 17.53 17.53 17.53 9.68 0 17.53-7.85 17.53-17.53 0-9.68-7.85-17.53-17.53-17.53Zm0 28.91c-6.28 0-11.38-5.09-11.38-11.38 0-6.29 5.1-11.38 11.38-11.38 6.28 0 11.38 5.09 11.38 11.38 0 6.29-5.1 11.38-11.38 11.38Zm18.2199-25.4999c2.2644 0 4.1-1.8357 4.1-4.1 0-2.2644-1.8356-4.1-4.1-4.1-2.2644 0-4.1 1.8356-4.1 4.1 0 2.2643 1.8356 4.1 4.1 4.1Z"/>
  </g>
  <defs>
    <linearGradient id="b" x1="14.6446" x2="85.3553" y1="85.3553" y2="14.6446" gradientUnits="userSpaceOnUse">
      <stop stop-color="#FFD521"/>
      <stop offset=".0551" stop-color="#FFD020"/>
      <stop offset=".1241" stop-color="#FEC01E"/>
      <stop offset=".2004" stop-color="#FCA71B"/>
      <stop offset=".2821" stop-color="#FA8316"/>
      <stop offset=".3681" stop-color="#F85510"/>
      <stop offset=".4563" stop-color="#F51E09"/>
      <stop offset=".5" stop-color="#F30005"/>
      <stop offset=".5035" stop-color="#F20007"/>
      <stop offset=".5966" stop-color="#E1003B"/>
      <stop offset=".6879" stop-color="#D30067"/>
      <stop offset=".7757" stop-color="#C70088"/>
      <stop offset=".8589" stop-color="#BF00A0"/>
      <stop offset=".9357" stop-color="#BB00AF"/>
      <stop offset="1" stop-color="#B900B4"/>
    </linearGradient>
    <clipPath id="a">
      <path fill="#fff" d="M0 0h100v100H0z"/>
    </clipPath>
  </defs>
</svg>
