<svg width="100" height="100" viewBox="0 0 100 100" fill="none" xmlns="http://www.w3.org/2000/svg">
<path d="M50 100C77.6142 100 100 77.6142 100 50C100 22.3858 77.6142 0 50 0C22.3858 0 0 22.3858 0 50C0 77.6142 22.3858 100 50 100Z" fill="url(#paint0_linear_64_320)"/>
<path d="M74.3361 28.7693L65.4103 73.7889C65.4103 73.7889 64.1603 76.9139 60.7228 75.41L40.1173 59.6092L32.6173 55.9959L20.0002 51.7576C20.0002 51.7576 18.0666 51.074 17.8712 49.5701C17.6759 48.0662 20.0587 47.2654 20.0587 47.2654L70.215 27.5975C70.215 27.5779 74.3361 25.7615 74.3361 28.7693Z" fill="white"/>
<path d="M38.5159 73.2814C38.5159 73.2814 37.9104 73.2228 37.1682 70.8595C36.426 68.4962 32.6174 55.9962 32.6174 55.9962L62.9104 36.7579C62.9104 36.7579 64.6682 35.7032 64.5901 36.7579C64.5901 36.7579 64.9026 36.9532 63.9651 37.8126C63.0276 38.6915 40.176 59.2384 40.176 59.2384" fill="#D2E4F0"/>
<path d="M48.0081 65.6642L39.8635 73.1056C39.8635 73.1056 39.219 73.5939 38.5354 73.2814L40.0979 59.4728" fill="#B5CFE4"/>
<defs>
<linearGradient id="paint0_linear_64_320" x1="50" y1="0" x2="50" y2="99.6352" gradientUnits="userSpaceOnUse">
<stop stop-color="#41BCE7"/>
<stop offset="1" stop-color="#22A6DC"/>
</linearGradient>
</defs>
</svg>
